<svg width="860" height="520" viewBox="0 0 860 520" fill="none" xmlns="http://www.w3.org/2000/svg">
  <defs>
    <linearGradient id="bg" x1="20" y1="20" x2="840" y2="500" gradientUnits="userSpaceOnUse">
      <stop stop-color="#FFF9ED"/>
      <stop offset="1" stop-color="#EAF7FF"/>
    </linearGradient>
  </defs>
  <rect x="20" y="20" width="820" height="480" rx="28" fill="url(#bg)" stroke="#F2D9A6" stroke-width="2"/>

  <g stroke="#155D78" stroke-width="4" opacity="0.7">
    <line x1="120" y1="410" x2="760" y2="410"/>
    <line x1="120" y1="120" x2="120" y2="410"/>
  </g>

  <g fill="#1F9E9A">
    <rect x="170" y="320" width="72" height="90" rx="10"/>
    <rect x="278" y="278" width="72" height="132" rx="10"/>
    <rect x="386" y="238" width="72" height="172" rx="10"/>
    <rect x="494" y="186" width="72" height="224" rx="10"/>
    <rect x="602" y="142" width="72" height="268" rx="10"/>
  </g>

  <g stroke="#0B4F6C" stroke-width="6" stroke-linecap="round" stroke-linejoin="round">
    <path d="M176 184L314 154L430 210L558 122L670 92"/>
  </g>

  <g fill="#0B4F6C">
    <circle cx="176" cy="184" r="9"/>
    <circle cx="314" cy="154" r="9"/>
    <circle cx="430" cy="210" r="9"/>
    <circle cx="558" cy="122" r="9"/>
    <circle cx="670" cy="92" r="9"/>
  </g>

  <text x="430" y="76" text-anchor="middle" fill="#7A4B0D" font-size="38" font-family="Helvetica, Arial, sans-serif" font-weight="700">Genetic Epidemiology</text>
</svg>
