<svg width="860" height="520" viewBox="0 0 860 520" fill="none" xmlns="http://www.w3.org/2000/svg">
  <defs>
    <linearGradient id="cardbg" x1="40" y1="30" x2="820" y2="490" gradientUnits="userSpaceOnUse">
      <stop stop-color="#F4FBFF"/>
      <stop offset="1" stop-color="#E8F7ED"/>
    </linearGradient>
  </defs>
  <rect x="20" y="20" width="820" height="480" rx="28" fill="url(#cardbg)" stroke="#C6E6D1" stroke-width="2"/>

  <g stroke="#0F6D8E" stroke-width="6" stroke-linecap="round">
    <path d="M250 110C334 160 340 238 250 292C168 338 162 420 244 462"/>
    <path d="M606 110C522 160 516 238 606 292C688 338 694 420 612 462"/>
  </g>

  <g stroke="#27A37C" stroke-width="4" stroke-linecap="round" opacity="0.9">
    <line x1="286" y1="132" x2="570" y2="132"/>
    <line x1="256" y1="178" x2="600" y2="178"/>
    <line x1="232" y1="224" x2="624" y2="224"/>
    <line x1="226" y1="270" x2="630" y2="270"/>
    <line x1="242" y1="316" x2="614" y2="316"/>
    <line x1="268" y1="362" x2="588" y2="362"/>
    <line x1="298" y1="408" x2="558" y2="408"/>
  </g>

  <g fill="#0A3D62" opacity="0.82">
    <circle cx="430" cy="132" r="8"/>
    <circle cx="428" cy="224" r="8"/>
    <circle cx="428" cy="316" r="8"/>
    <circle cx="428" cy="408" r="8"/>
  </g>

  <text x="430" y="76" text-anchor="middle" fill="#0A3D62" font-size="38" font-family="Helvetica, Arial, sans-serif" font-weight="700">Cancer Genomics</text>
</svg>
