<svg width="860" height="520" viewBox="0 0 860 520" fill="none" xmlns="http://www.w3.org/2000/svg">
  <defs>
    <linearGradient id="bg" x1="20" y1="20" x2="840" y2="500" gradientUnits="userSpaceOnUse">
      <stop stop-color="#F7FAFF"/>
      <stop offset="1" stop-color="#EEF3FB"/>
    </linearGradient>

    <pattern id="mosaic" patternUnits="userSpaceOnUse" width="20" height="20">
      <rect width="20" height="20" fill="#F8FBFF"/>
      <rect x="1" y="1" width="5" height="5" fill="#E66D58"/>
      <rect x="7" y="1" width="5" height="5" fill="#F6B95E"/>
      <rect x="13" y="1" width="5" height="5" fill="#71B7F6"/>

      <rect x="1" y="7" width="5" height="5" fill="#8E75E6"/>
      <rect x="7" y="7" width="5" height="5" fill="#6EC785"/>
      <rect x="13" y="7" width="5" height="5" fill="#4AA0D8"/>

      <rect x="1" y="13" width="5" height="5" fill="#D45A81"/>
      <rect x="7" y="13" width="5" height="5" fill="#7DA9ED"/>
      <rect x="13" y="13" width="5" height="5" fill="#F0A95A"/>
    </pattern>

    <filter id="softShadow" x="0" y="0" width="860" height="520" filterUnits="userSpaceOnUse" color-interpolation-filters="sRGB">
      <feOffset dy="2"/>
      <feGaussianBlur stdDeviation="2"/>
      <feColorMatrix type="matrix" values="0 0 0 0 0.25 0 0 0 0 0.33 0 0 0 0 0.45 0 0 0 0.12 0"/>
      <feBlend mode="normal" in2="SourceGraphic" result="shape"/>
    </filter>
  </defs>

  <rect x="20" y="20" width="820" height="480" rx="30" fill="url(#bg)" stroke="#D8E1F0"/>

  <g transform="translate(80 94)" filter="url(#softShadow)">
    <line x1="0" y1="360" x2="700" y2="360" stroke="#C5CEE0" stroke-width="2"/>

    <g fill="url(#mosaic)" stroke="#DEE5F2" stroke-width="1">
      <rect x="0" y="240" width="14" height="120" rx="2"/>
      <rect x="22" y="190" width="14" height="170" rx="2"/>
      <rect x="44" y="264" width="14" height="96" rx="2"/>
      <rect x="66" y="150" width="14" height="210" rx="2"/>
      <rect x="88" y="228" width="14" height="132" rx="2"/>
      <rect x="110" y="172" width="14" height="188" rx="2"/>
      <rect x="132" y="256" width="14" height="104" rx="2"/>
      <rect x="154" y="206" width="14" height="154" rx="2"/>
      <rect x="176" y="140" width="14" height="220" rx="2"/>
      <rect x="198" y="244" width="14" height="116" rx="2"/>
      <rect x="220" y="184" width="14" height="176" rx="2"/>
      <rect x="242" y="224" width="14" height="136" rx="2"/>
      <rect x="264" y="160" width="14" height="200" rx="2"/>
      <rect x="286" y="262" width="14" height="98" rx="2"/>
      <rect x="308" y="196" width="14" height="164" rx="2"/>
      <rect x="330" y="128" width="14" height="232" rx="2"/>
      <rect x="352" y="232" width="14" height="128" rx="2"/>
      <rect x="374" y="178" width="14" height="182" rx="2"/>
      <rect x="396" y="248" width="14" height="112" rx="2"/>
      <rect x="418" y="154" width="14" height="206" rx="2"/>
      <rect x="440" y="218" width="14" height="142" rx="2"/>
      <rect x="462" y="166" width="14" height="194" rx="2"/>
      <rect x="484" y="236" width="14" height="124" rx="2"/>
      <rect x="506" y="186" width="14" height="174" rx="2"/>
      <rect x="528" y="144" width="14" height="216" rx="2"/>
      <rect x="550" y="226" width="14" height="134" rx="2"/>
      <rect x="572" y="174" width="14" height="186" rx="2"/>
      <rect x="594" y="242" width="14" height="118" rx="2"/>
      <rect x="616" y="162" width="14" height="198" rx="2"/>
      <rect x="638" y="252" width="14" height="108" rx="2"/>
      <rect x="660" y="192" width="14" height="168" rx="2"/>
      <rect x="682" y="134" width="14" height="226" rx="2"/>
    </g>

    <g fill="#D95773" opacity="0.9">
      <circle cx="11" cy="378" r="3"/>
      <circle cx="99" cy="381" r="2.8"/>
      <circle cx="187" cy="377" r="2.7"/>
      <circle cx="275" cy="380" r="3"/>
      <circle cx="363" cy="378" r="2.9"/>
      <circle cx="451" cy="381" r="2.8"/>
      <circle cx="539" cy="377" r="2.7"/>
      <circle cx="627" cy="380" r="3"/>
      <circle cx="689" cy="378" r="2.8"/>
    </g>
  </g>

  <text x="430" y="72" text-anchor="middle" fill="#44536D" font-size="34" font-family="Helvetica, Arial, sans-serif" font-weight="700">Bioinformatics</text>
</svg>
