<svg width="860" height="520" viewBox="0 0 860 520" fill="none" xmlns="http://www.w3.org/2000/svg">
  <defs>
    <linearGradient id="bg" x1="20" y1="20" x2="840" y2="500" gradientUnits="userSpaceOnUse">
      <stop stop-color="#EEF6FF"/>
      <stop offset="1" stop-color="#F0FFFA"/>
    </linearGradient>
  </defs>
  <rect x="20" y="20" width="820" height="480" rx="28" fill="url(#bg)" stroke="#B8DAF8" stroke-width="2"/>

  <g stroke="#2F5B94" stroke-width="4" opacity="0.85">
    <line x1="214" y1="150" x2="430" y2="106"/>
    <line x1="430" y1="106" x2="642" y2="162"/>
    <line x1="214" y1="352" x2="430" y2="412"/>
    <line x1="430" y1="412" x2="642" y2="356"/>
    <line x1="214" y1="150" x2="214" y2="352"/>
    <line x1="430" y1="106" x2="430" y2="412"/>
    <line x1="642" y1="162" x2="642" y2="356"/>
  </g>

  <g fill="#0A3D62">
    <circle cx="214" cy="150" r="18"/>
    <circle cx="430" cy="106" r="18"/>
    <circle cx="642" cy="162" r="18"/>
    <circle cx="214" cy="352" r="18"/>
    <circle cx="430" cy="412" r="18"/>
    <circle cx="642" cy="356" r="18"/>
  </g>

  <g fill="#39A96B" opacity="0.88">
    <circle cx="322" cy="258" r="14"/>
    <circle cx="538" cy="262" r="14"/>
    <circle cx="430" cy="258" r="14"/>
  </g>

  <text x="430" y="76" text-anchor="middle" fill="#214E89" font-size="38" font-family="Helvetica, Arial, sans-serif" font-weight="700">Bioinformatics Pipelines</text>
</svg>
